<?xml version="1.0" standalone="no"?>
<!DOCTYPE svg PUBLIC "-//W3C//DTD SVG 20010904//EN"
 "http://www.w3.org/TR/2001/REC-SVG-20010904/DTD/svg10.dtd">
<svg version="1.0" xmlns="http://www.w3.org/2000/svg"
 width="519.000000pt" height="519.000000pt" viewBox="0 0 519.000000 519.000000"
 preserveAspectRatio="xMidYMid meet">
<metadata>
Created by potrace 1.14, written by Peter Selinger 2001-2017
</metadata>
<g transform="translate(0.000000,519.000000) scale(0.100000,-0.100000)"
fill="#000000" stroke="none">
<path d="M2588 5186 c-1 -2 -84 -6 -183 -10 -99 -4 -193 -8 -210 -10 -16 -3
-59 -7 -95 -10 -36 -3 -80 -8 -98 -11 -18 -2 -52 -7 -75 -10 -23 -3 -53 -8
-67 -10 -14 -3 -41 -7 -60 -10 -30 -5 -129 -24 -205 -39 -246 -51 -405 -106
-476 -163 -133 -108 -351 -406 -486 -663 -86 -163 -195 -451 -219 -579 -1 -7
-7 -34 -13 -60 -37 -153 -50 -431 -30 -586 39 -289 164 -543 368 -744 53 -53
117 -109 141 -126 25 -16 47 -33 50 -36 9 -12 184 -115 235 -138 96 -45 141
-63 223 -91 l82 -29 0 825 c0 801 1 826 20 863 45 90 165 114 238 47 59 -53
56 8 58 -1061 1 -539 2 -981 3 -982 0 -1 31 10 69 24 171 66 347 110 512 129
88 11 349 11 435 0 39 -4 79 -9 90 -10 107 -13 260 -55 423 -115 l82 -30 1 32
c0 17 1 462 2 987 2 909 3 956 20 985 38 62 113 93 181 74 40 -11 105 -79 108
-112 1 -12 2 -384 4 -827 1 -443 3 -810 3 -817 1 -16 142 33 281 98 372 176
627 441 749 779 31 88 49 156 57 225 3 22 8 47 11 55 17 46 9 344 -12 478 -13
82 -17 101 -46 212 -53 205 -171 486 -278 660 -22 36 -48 78 -57 95 -30 53
-145 208 -221 297 -141 167 -206 206 -448 267 -44 11 -96 23 -115 26 -19 3
-51 10 -70 15 -19 5 -55 12 -80 15 -24 4 -47 8 -50 10 -9 5 -103 20 -195 31
-33 3 -62 8 -65 9 -3 2 -41 6 -85 10 -44 4 -91 8 -105 11 -14 2 -104 6 -200
10 -96 3 -180 7 -187 9 -6 2 -13 2 -15 1z"/>
<path d="M2428 1455 c-2 -1 -37 -6 -77 -9 -41 -4 -77 -9 -80 -11 -4 -2 -22 -6
-41 -9 -203 -32 -473 -171 -545 -280 -19 -28 -39 -71 -44 -96 -14 -58 -14
-173 -1 -241 6 -30 13 -67 16 -83 13 -76 99 -260 156 -336 76 -100 224 -222
343 -282 320 -163 731 -129 1012 83 178 134 276 268 341 464 38 114 51 197 47
308 -5 142 -54 220 -195 307 -132 83 -286 139 -450 165 -19 3 -51 8 -70 11
-36 6 -406 14 -412 9z"/>
</g>
</svg>
